<?xml version="1.0" encoding="utf-8"?>
<!-- Generator: Adobe Illustrator 23.0.6, SVG Export Plug-In . SVG Version: 6.00 Build 0)  -->
<svg version="1.1" id="Simple" xmlns="http://www.w3.org/2000/svg" xmlns:xlink="http://www.w3.org/1999/xlink" x="0px" y="0px"
	 viewBox="0 0 280.06 559.44" style="enable-background:new 0 0 280.06 559.44;" xml:space="preserve">
<style type="text/css">
	.st0{fill:#2D2D2D;}
</style>
<path class="st0" d="M279.97,130.76c-0.01-0.03-0.01-0.05-0.02-0.08c-0.06-0.17-0.15-0.32-0.26-0.46c-0.01-0.02-0.03-0.04-0.04-0.05
	c-0.24-0.29-0.57-0.51-0.95-0.6c-0.12-0.03-0.25-0.05-0.38-0.05V52.1c0-18.2-1.87-29.52-13.39-40.82C253.79,0.37,237.74,0,232.3,0
	H47.63c-5.44,0-21.49,0.37-32.62,11.28C3.49,22.58,1.62,33.9,1.62,52.1v23.32H1.29c-0.11,0-0.2,0.04-0.3,0.06v-0.02
	c-0.03,0.01-0.06,0.03-0.1,0.04c-0.07,0.02-0.13,0.05-0.2,0.08c-0.08,0.04-0.14,0.09-0.21,0.14c-0.05,0.04-0.1,0.08-0.15,0.13
	c-0.07,0.07-0.11,0.15-0.16,0.24c-0.03,0.05-0.06,0.09-0.08,0.14C0.04,76.39,0,76.55,0,76.71v18.86c0,0.17,0.04,0.32,0.09,0.47
	c0.02,0.05,0.05,0.09,0.08,0.14c0.05,0.09,0.1,0.17,0.16,0.24c0.05,0.05,0.1,0.09,0.15,0.13c0.07,0.05,0.13,0.1,0.21,0.14
	c0.06,0.03,0.13,0.06,0.2,0.08c0.03,0.01,0.06,0.03,0.1,0.04V96.8c0.1,0.02,0.2,0.06,0.3,0.06h0.33v18.57H1.29
	c-0.11,0-0.2,0.04-0.3,0.06v-0.02c-0.03,0.01-0.06,0.03-0.1,0.04c-0.07,0.02-0.13,0.05-0.2,0.08c-0.08,0.04-0.14,0.09-0.21,0.14
	c-0.05,0.04-0.1,0.08-0.15,0.13c-0.07,0.07-0.11,0.15-0.16,0.24c-0.03,0.05-0.06,0.09-0.08,0.14C0.04,116.4,0,116.56,0,116.72v37.98
	c0,0.17,0.04,0.32,0.09,0.47c0.02,0.05,0.05,0.09,0.08,0.14c0.05,0.09,0.1,0.17,0.16,0.24c0.05,0.05,0.1,0.09,0.15,0.13
	c0.07,0.05,0.13,0.1,0.21,0.14c0.06,0.04,0.13,0.06,0.2,0.09c0.03,0.01,0.06,0.03,0.09,0.04v-0.02c0.1,0.02,0.2,0.06,0.3,0.06h0.33
	v10.76c-0.04,0.01-0.09,0.02-0.14,0.03v-0.02c-0.03,0.01-0.06,0.03-0.1,0.04c-0.07,0.02-0.13,0.05-0.2,0.08
	c-0.08,0.04-0.14,0.09-0.21,0.14c-0.05,0.04-0.1,0.08-0.15,0.13c-0.07,0.07-0.12,0.16-0.16,0.24c-0.03,0.05-0.06,0.09-0.08,0.14
	c-0.06,0.15-0.09,0.3-0.09,0.47v37.98c0,0.17,0.04,0.32,0.09,0.47c0.02,0.05,0.05,0.09,0.08,0.14c0.05,0.09,0.1,0.17,0.16,0.24
	c0.04,0.05,0.09,0.09,0.15,0.13c0.07,0.05,0.13,0.1,0.21,0.14c0.06,0.03,0.13,0.06,0.2,0.08c0.03,0.01,0.06,0.03,0.09,0.04v-0.02
	c0.04,0.01,0.09,0.02,0.14,0.03v300.08c0,18.2,1.87,29.52,13.39,40.82c11.13,10.91,27.18,11.28,32.62,11.28H232.3
	c5.44,0,21.49-0.37,32.62-11.28c11.52-11.3,13.39-22.62,13.39-40.82V193.4c0.54-0.01,1.01-0.26,1.33-0.65
	c0.01-0.02,0.03-0.03,0.04-0.05c0.11-0.14,0.19-0.29,0.26-0.46c0.01-0.03,0.02-0.05,0.02-0.08c0.06-0.17,0.09-0.36,0.09-0.55v-60.29
	C280.07,131.12,280.03,130.94,279.97,130.76z M261.57,507.34c0,15.25-1.26,21.9-8.37,28.87c-3.02,2.96-9.1,6.49-20.89,6.49H47.63
	c-11.8,0-17.88-3.53-20.9-6.49c-7.11-6.97-8.37-13.62-8.37-28.87V52.1c0-15.25,1.26-21.9,8.37-28.87c3.02-2.96,9.1-6.49,20.89-6.49
	h21.62c1.08,0.14,2.63,0.78,2.79,3.35c0.21,3.53,0.64,8.19,4.14,11.77c2.7,2.76,6.19,4.08,9.82,4.08h108.5
	c3.63,0,7.12-1.32,9.82-4.08c3.5-3.58,3.93-8.24,4.14-11.77c0.16-2.57,1.71-3.21,2.78-3.35h21.07c11.8,0,17.88,3.53,20.9,6.49
	c7.11,6.97,8.37,13.62,8.37,28.87V507.34z"/>
</svg>
